<?xml version="1.0" encoding="utf-8" standalone="no"?>
<!DOCTYPE svg PUBLIC "-//W3C//DTD SVG 1.1//EN"
  "http://www.w3.org/Graphics/SVG/1.1/DTD/svg11.dtd">
<svg xmlns:xlink="http://www.w3.org/1999/xlink" width="525.863959pt" height="286.944851pt" viewBox="0 0 525.863959 286.944851" xmlns="http://www.w3.org/2000/svg" version="1.1">
 <metadata>
  <rdf:RDF xmlns:dc="http://purl.org/dc/elements/1.1/" xmlns:cc="http://creativecommons.org/ns#" xmlns:rdf="http://www.w3.org/1999/02/22-rdf-syntax-ns#">
   <cc:Work>
    <dc:type rdf:resource="http://purl.org/dc/dcmitype/StillImage"/>
    <dc:date>2026-06-06T16:30:24.354987</dc:date>
    <dc:format>image/svg+xml</dc:format>
    <dc:creator>
     <cc:Agent>
      <dc:title>Matplotlib v3.9.4, https://matplotlib.org/</dc:title>
     </cc:Agent>
    </dc:creator>
   </cc:Work>
  </rdf:RDF>
 </metadata>
 <defs>
  <style type="text/css">*{stroke-linejoin: round; stroke-linecap: butt}</style>
 </defs>
 <g id="figure_1">
  <g id="patch_1">
   <path d="M 0 286.944851 
L 525.863959 286.944851 
L 525.863959 0 
L 0 0 
z
" style="fill: #ffffff"/>
  </g>
  <g id="axes_1">
   <g id="patch_2">
    <path d="M 90.677567 232.704 
L 300.29148 232.704 
L 300.29148 33.12 
L 90.677567 33.12 
z
" style="fill: #ffffff"/>
   </g>
   <g id="patch_3">
    <path d="M 90.677567 82.616456 
L 300.29148 82.616456 
L 300.29148 42.192 
L 90.677567 42.192 
z
" clip-path="url(#p919c519538)" style="fill: #ffffff; stroke: #ffffff; stroke-linejoin: miter"/>
   </g>
   <g id="patch_4">
    <path d="M 90.677567 129.621637 
L 300.29148 129.621637 
L 300.29148 89.197181 
L 90.677567 89.197181 
z
" clip-path="url(#p919c519538)" style="fill: #f7f9fb; stroke: #f7f9fb; stroke-linejoin: miter"/>
   </g>
   <g id="patch_5">
    <path d="M 90.677567 176.626819 
L 300.29148 176.626819 
L 300.29148 136.202363 
L 90.677567 136.202363 
z
" clip-path="url(#p919c519538)" style="fill: #ffffff; stroke: #ffffff; stroke-linejoin: miter"/>
   </g>
   <g id="patch_6">
    <path d="M 90.677567 223.632 
L 300.29148 223.632 
L 300.29148 183.207544 
L 90.677567 183.207544 
z
" clip-path="url(#p919c519538)" style="fill: #f7f9fb; stroke: #f7f9fb; stroke-linejoin: miter"/>
   </g>
   <g id="line2d_1">
    <path d="M 265.90956 232.704 
L 265.90956 33.12 
" clip-path="url(#p919c519538)" style="fill: none; stroke-dasharray: 2.96,1.28; stroke-dashoffset: 0; stroke: #b8c4cf; stroke-width: 0.8"/>
   </g>
   <g id="matplotlib.axis_1">
    <g id="xtick_1">
     <g id="line2d_2">
      <defs>
       <path id="mc68f82bfc8" d="M 0 0 
L 0 3 
" style="stroke: #000000; stroke-width: 0.6"/>
      </defs>
      <g>
       <use xlink:href="#mc68f82bfc8" x="131.222433" y="232.704" style="stroke: #000000; stroke-width: 0.6"/>
      </g>
     </g>
     <g id="text_1">
      <text style="font: 6.8px 'Arial', 'Helvetica', 'DejaVu Sans', sans-serif; text-anchor: middle" x="131.222433" y="244.071312" transform="rotate(-0 131.222433 244.071312)">0.1</text>
     </g>
    </g>
    <g id="xtick_2">
     <g id="line2d_3">
      <g>
       <use xlink:href="#mc68f82bfc8" x="195.484524" y="232.704" style="stroke: #000000; stroke-width: 0.6"/>
      </g>
     </g>
     <g id="text_2">
      <text style="font: 6.8px 'Arial', 'Helvetica', 'DejaVu Sans', sans-serif; text-anchor: middle" x="195.484524" y="244.071312" transform="rotate(-0 195.484524 244.071312)">0.3</text>
     </g>
    </g>
    <g id="xtick_3">
     <g id="line2d_4">
      <g>
       <use xlink:href="#mc68f82bfc8" x="265.90956" y="232.704" style="stroke: #000000; stroke-width: 0.6"/>
      </g>
     </g>
     <g id="text_3">
      <text style="font: 6.8px 'Arial', 'Helvetica', 'DejaVu Sans', sans-serif; text-anchor: middle" x="265.90956" y="244.071312" transform="rotate(-0 265.90956 244.071312)">1.0</text>
     </g>
    </g>
    <g id="text_4">
     <text style="font: 6.7px 'Arial', 'Helvetica', 'DejaVu Sans', sans-serif; text-anchor: middle" x="195.484524" y="254.304391" transform="rotate(-0 195.484524 254.304391)">OR per 1-SD higher score or module</text>
    </g>
   </g>
   <g id="matplotlib.axis_2"/>
   <g id="patch_7">
    <path d="M 90.677567 232.704 
L 90.677567 33.12 
" style="fill: none; stroke: #000000; stroke-width: 0.6; stroke-linejoin: miter; stroke-linecap: square"/>
   </g>
   <g id="patch_8">
    <path d="M 90.677567 232.704 
L 300.29148 232.704 
" style="fill: none; stroke: #000000; stroke-width: 0.6; stroke-linejoin: miter; stroke-linecap: square"/>
   </g>
   <g id="text_5">
    <text style="fill: #252b35; font: 700 6px 'Arial', 'Helvetica', 'DejaVu Sans', sans-serif" transform="translate(7.2 46.179716)">GSE73661</text>
    <text style="fill: #252b35; font: 700 6px 'Arial', 'Helvetica', 'DejaVu Sans', sans-serif" transform="translate(7.2 52.517403)">mucosal healing</text>
   </g>
   <g id="LineCollection_1">
    <path d="M 194.123452 51.122984 
L 264.028359 51.122984 
" clip-path="url(#p919c519538)" style="fill: none; stroke: #1a5c9a; stroke-width: 0.9"/>
   </g>
   <g id="line2d_5">
    <defs>
     <path id="m328f42f884" d="M 0 1.8 
L 0 -1.8 
" style="stroke: #1a5c9a"/>
    </defs>
    <g clip-path="url(#p919c519538)">
     <use xlink:href="#m328f42f884" x="194.123452" y="51.122984" style="fill: #1a5c9a; stroke: #1a5c9a"/>
    </g>
   </g>
   <g id="line2d_6">
    <g clip-path="url(#p919c519538)">
     <use xlink:href="#m328f42f884" x="264.028359" y="51.122984" style="fill: #1a5c9a; stroke: #1a5c9a"/>
    </g>
   </g>
   <g id="LineCollection_2">
    <path d="M 163.796539 58.643813 
L 248.001408 58.643813 
" clip-path="url(#p919c519538)" style="fill: none; stroke: #9e2a2b; stroke-width: 0.9"/>
   </g>
   <g id="line2d_7">
    <defs>
     <path id="m85dbef5e49" d="M 0 1.8 
L 0 -1.8 
" style="stroke: #9e2a2b"/>
    </defs>
    <g clip-path="url(#p919c519538)">
     <use xlink:href="#m85dbef5e49" x="163.796539" y="58.643813" style="fill: #9e2a2b; stroke: #9e2a2b"/>
    </g>
   </g>
   <g id="line2d_8">
    <g clip-path="url(#p919c519538)">
     <use xlink:href="#m85dbef5e49" x="248.001408" y="58.643813" style="fill: #9e2a2b; stroke: #9e2a2b"/>
    </g>
   </g>
   <g id="LineCollection_3">
    <path d="M 220.358425 66.164642 
L 289.51476 66.164642 
" clip-path="url(#p919c519538)" style="fill: none; stroke: #7a8898; stroke-width: 0.9"/>
   </g>
   <g id="line2d_9">
    <defs>
     <path id="m3a824b5057" d="M 0 1.8 
L 0 -1.8 
" style="stroke: #7a8898"/>
    </defs>
    <g clip-path="url(#p919c519538)">
     <use xlink:href="#m3a824b5057" x="220.358425" y="66.164642" style="fill: #7a8898; stroke: #7a8898"/>
    </g>
   </g>
   <g id="line2d_10">
    <g clip-path="url(#p919c519538)">
     <use xlink:href="#m3a824b5057" x="289.51476" y="66.164642" style="fill: #7a8898; stroke: #7a8898"/>
    </g>
   </g>
   <g id="LineCollection_4">
    <path d="M 193.757496 73.685472 
L 266.039856 73.685472 
" clip-path="url(#p919c519538)" style="fill: none; stroke: #b86200; stroke-width: 0.9"/>
   </g>
   <g id="line2d_11">
    <defs>
     <path id="m9c464d2362" d="M 0 1.8 
L 0 -1.8 
" style="stroke: #b86200"/>
    </defs>
    <g clip-path="url(#p919c519538)">
     <use xlink:href="#m9c464d2362" x="193.757496" y="73.685472" style="fill: #b86200; stroke: #b86200"/>
    </g>
   </g>
   <g id="line2d_12">
    <g clip-path="url(#p919c519538)">
     <use xlink:href="#m9c464d2362" x="266.039856" y="73.685472" style="fill: #b86200; stroke: #b86200"/>
    </g>
   </g>
   <g id="text_6">
    <text style="fill: #252b35; font: 700 6px 'Arial', 'Helvetica', 'DejaVu Sans', sans-serif" transform="translate(7.2 93.184897)">GSE206285</text>
    <text style="fill: #252b35; font: 700 6px 'Arial', 'Helvetica', 'DejaVu Sans', sans-serif" transform="translate(7.2 99.522584)">mucosal healing</text>
   </g>
   <g id="LineCollection_5">
    <path d="M 218.561586 98.128166 
L 245.525363 98.128166 
" clip-path="url(#p919c519538)" style="fill: none; stroke: #1a5c9a; stroke-width: 0.9"/>
   </g>
   <g id="line2d_13">
    <g clip-path="url(#p919c519538)">
     <use xlink:href="#m328f42f884" x="218.561586" y="98.128166" style="fill: #1a5c9a; stroke: #1a5c9a"/>
    </g>
   </g>
   <g id="line2d_14">
    <g clip-path="url(#p919c519538)">
     <use xlink:href="#m328f42f884" x="245.525363" y="98.128166" style="fill: #1a5c9a; stroke: #1a5c9a"/>
    </g>
   </g>
   <g id="LineCollection_6">
    <path d="M 212.347249 105.648995 
L 242.55658 105.648995 
" clip-path="url(#p919c519538)" style="fill: none; stroke: #9e2a2b; stroke-width: 0.9"/>
   </g>
   <g id="line2d_15">
    <g clip-path="url(#p919c519538)">
     <use xlink:href="#m85dbef5e49" x="212.347249" y="105.648995" style="fill: #9e2a2b; stroke: #9e2a2b"/>
    </g>
   </g>
   <g id="line2d_16">
    <g clip-path="url(#p919c519538)">
     <use xlink:href="#m85dbef5e49" x="242.55658" y="105.648995" style="fill: #9e2a2b; stroke: #9e2a2b"/>
    </g>
   </g>
   <g id="LineCollection_7">
    <path d="M 232.171968 113.169824 
L 259.977923 113.169824 
" clip-path="url(#p919c519538)" style="fill: none; stroke: #7a8898; stroke-width: 0.9"/>
   </g>
   <g id="line2d_17">
    <g clip-path="url(#p919c519538)">
     <use xlink:href="#m3a824b5057" x="232.171968" y="113.169824" style="fill: #7a8898; stroke: #7a8898"/>
    </g>
   </g>
   <g id="line2d_18">
    <g clip-path="url(#p919c519538)">
     <use xlink:href="#m3a824b5057" x="259.977923" y="113.169824" style="fill: #7a8898; stroke: #7a8898"/>
    </g>
   </g>
   <g id="LineCollection_8">
    <path d="M 220.431149 120.690653 
L 248.977552 120.690653 
" clip-path="url(#p919c519538)" style="fill: none; stroke: #b86200; stroke-width: 0.9"/>
   </g>
   <g id="line2d_19">
    <g clip-path="url(#p919c519538)">
     <use xlink:href="#m9c464d2362" x="220.431149" y="120.690653" style="fill: #b86200; stroke: #b86200"/>
    </g>
   </g>
   <g id="line2d_20">
    <g clip-path="url(#p919c519538)">
     <use xlink:href="#m9c464d2362" x="248.977552" y="120.690653" style="fill: #b86200; stroke: #b86200"/>
    </g>
   </g>
   <g id="text_7">
    <text style="fill: #252b35; font: 700 6px 'Arial', 'Helvetica', 'DejaVu Sans', sans-serif" transform="translate(7.2 140.229453)">GSE206285</text>
    <text style="fill: #252b35; font: 700 6px 'Arial', 'Helvetica', 'DejaVu Sans', sans-serif" transform="translate(7.2 146.567141)">clinical remission</text>
   </g>
   <g id="LineCollection_9">
    <path d="M 225.283566 145.133347 
L 255.148037 145.133347 
" clip-path="url(#p919c519538)" style="fill: none; stroke: #1a5c9a; stroke-width: 0.9"/>
   </g>
   <g id="line2d_21">
    <g clip-path="url(#p919c519538)">
     <use xlink:href="#m328f42f884" x="225.283566" y="145.133347" style="fill: #1a5c9a; stroke: #1a5c9a"/>
    </g>
   </g>
   <g id="line2d_22">
    <g clip-path="url(#p919c519538)">
     <use xlink:href="#m328f42f884" x="255.148037" y="145.133347" style="fill: #1a5c9a; stroke: #1a5c9a"/>
    </g>
   </g>
   <g id="LineCollection_10">
    <path d="M 217.262806 152.654176 
L 250.414862 152.654176 
" clip-path="url(#p919c519538)" style="fill: none; stroke: #9e2a2b; stroke-width: 0.9"/>
   </g>
   <g id="line2d_23">
    <g clip-path="url(#p919c519538)">
     <use xlink:href="#m85dbef5e49" x="217.262806" y="152.654176" style="fill: #9e2a2b; stroke: #9e2a2b"/>
    </g>
   </g>
   <g id="line2d_24">
    <g clip-path="url(#p919c519538)">
     <use xlink:href="#m85dbef5e49" x="250.414862" y="152.654176" style="fill: #9e2a2b; stroke: #9e2a2b"/>
    </g>
   </g>
   <g id="LineCollection_11">
    <path d="M 237.854106 160.175005 
L 269.123367 160.175005 
" clip-path="url(#p919c519538)" style="fill: none; stroke: #7a8898; stroke-width: 0.9"/>
   </g>
   <g id="line2d_25">
    <g clip-path="url(#p919c519538)">
     <use xlink:href="#m3a824b5057" x="237.854106" y="160.175005" style="fill: #7a8898; stroke: #7a8898"/>
    </g>
   </g>
   <g id="line2d_26">
    <g clip-path="url(#p919c519538)">
     <use xlink:href="#m3a824b5057" x="269.123367" y="160.175005" style="fill: #7a8898; stroke: #7a8898"/>
    </g>
   </g>
   <g id="LineCollection_12">
    <path d="M 226.949278 167.695834 
L 258.532574 167.695834 
" clip-path="url(#p919c519538)" style="fill: none; stroke: #b86200; stroke-width: 0.9"/>
   </g>
   <g id="line2d_27">
    <g clip-path="url(#p919c519538)">
     <use xlink:href="#m9c464d2362" x="226.949278" y="167.695834" style="fill: #b86200; stroke: #b86200"/>
    </g>
   </g>
   <g id="line2d_28">
    <g clip-path="url(#p919c519538)">
     <use xlink:href="#m9c464d2362" x="258.532574" y="167.695834" style="fill: #b86200; stroke: #b86200"/>
    </g>
   </g>
   <g id="text_8">
    <text style="fill: #252b35; font: 700 6px 'Arial', 'Helvetica', 'DejaVu Sans', sans-serif" transform="translate(7.2 187.19076)">GSE16879</text>
    <text style="fill: #252b35; font: 700 6px 'Arial', 'Helvetica', 'DejaVu Sans', sans-serif" transform="translate(7.2 193.616197)">infliximab response</text>
   </g>
   <g id="LineCollection_13">
    <path d="M 107.204302 192.138528 
L 215.223302 192.138528 
" clip-path="url(#p919c519538)" style="fill: none; stroke: #1a5c9a; stroke-width: 0.9"/>
   </g>
   <g id="line2d_29">
    <g clip-path="url(#p919c519538)">
     <use xlink:href="#m328f42f884" x="107.204302" y="192.138528" style="fill: #1a5c9a; stroke: #1a5c9a"/>
    </g>
   </g>
   <g id="line2d_30">
    <g clip-path="url(#p919c519538)">
     <use xlink:href="#m328f42f884" x="215.223302" y="192.138528" style="fill: #1a5c9a; stroke: #1a5c9a"/>
    </g>
   </g>
   <g id="LineCollection_14">
    <path d="M 80.976544 199.659358 
L 211.580528 199.659358 
" clip-path="url(#p919c519538)" style="fill: none; stroke: #9e2a2b; stroke-width: 0.9"/>
   </g>
   <g id="line2d_31">
    <g clip-path="url(#p919c519538)">
     <use xlink:href="#m85dbef5e49" x="80.976544" y="199.659358" style="fill: #9e2a2b; stroke: #9e2a2b"/>
    </g>
   </g>
   <g id="line2d_32">
    <g clip-path="url(#p919c519538)">
     <use xlink:href="#m85dbef5e49" x="211.580528" y="199.659358" style="fill: #9e2a2b; stroke: #9e2a2b"/>
    </g>
   </g>
   <g id="LineCollection_15">
    <path d="M 167.215246 207.180187 
L 247.632892 207.180187 
" clip-path="url(#p919c519538)" style="fill: none; stroke: #7a8898; stroke-width: 0.9"/>
   </g>
   <g id="line2d_33">
    <g clip-path="url(#p919c519538)">
     <use xlink:href="#m3a824b5057" x="167.215246" y="207.180187" style="fill: #7a8898; stroke: #7a8898"/>
    </g>
   </g>
   <g id="line2d_34">
    <g clip-path="url(#p919c519538)">
     <use xlink:href="#m3a824b5057" x="247.632892" y="207.180187" style="fill: #7a8898; stroke: #7a8898"/>
    </g>
   </g>
   <g id="LineCollection_16">
    <path d="M 103.5674 214.701016 
L 216.104726 214.701016 
" clip-path="url(#p919c519538)" style="fill: none; stroke: #b86200; stroke-width: 0.9"/>
   </g>
   <g id="line2d_35">
    <g clip-path="url(#p919c519538)">
     <use xlink:href="#m9c464d2362" x="103.5674" y="214.701016" style="fill: #b86200; stroke: #b86200"/>
    </g>
   </g>
   <g id="line2d_36">
    <g clip-path="url(#p919c519538)">
     <use xlink:href="#m9c464d2362" x="216.104726" y="214.701016" style="fill: #b86200; stroke: #b86200"/>
    </g>
   </g>
   <g id="text_9">
    <text style="fill: #6b7685; font: 5.4px 'Arial', 'Helvetica', 'DejaVu Sans', sans-serif; text-anchor: start" x="90.677567" y="278.60832" transform="rotate(-0 90.677567 278.60832)">Values below 1 indicate higher endpoint rates in lower-score groups.</text>
   </g>
   <g id="text_10">
    <text style="font: 700 7.3px 'Arial', 'Helvetica', 'DejaVu Sans', sans-serif; text-anchor: start" x="90.677567" y="26.12" transform="rotate(-0 90.677567 26.12)">a  Module contribution in representative adult endpoints</text>
   </g>
   <g id="line2d_37">
    <defs>
     <path id="m0bcc377849" d="M 0 1.65 
C 0.437585 1.65 0.857307 1.476146 1.166726 1.166726 
C 1.476146 0.857307 1.65 0.437585 1.65 0 
C 1.65 -0.437585 1.476146 -0.857307 1.166726 -1.166726 
C 0.857307 -1.476146 0.437585 -1.65 0 -1.65 
C -0.437585 -1.65 -0.857307 -1.476146 -1.166726 -1.166726 
C -1.476146 -0.857307 -1.65 -0.437585 -1.65 0 
C -1.65 0.437585 -1.476146 0.857307 -1.166726 1.166726 
C -0.857307 1.476146 -0.437585 1.65 0 1.65 
z
" style="stroke: #1a5c9a"/>
    </defs>
    <g clip-path="url(#p919c519538)">
     <use xlink:href="#m0bcc377849" x="229.0759" y="51.122984" style="fill: #1a5c9a; stroke: #1a5c9a"/>
    </g>
   </g>
   <g id="line2d_38">
    <defs>
     <path id="m895f2c048e" d="M 0 1.65 
C 0.437585 1.65 0.857307 1.476146 1.166726 1.166726 
C 1.476146 0.857307 1.65 0.437585 1.65 0 
C 1.65 -0.437585 1.476146 -0.857307 1.166726 -1.166726 
C 0.857307 -1.476146 0.437585 -1.65 0 -1.65 
C -0.437585 -1.65 -0.857307 -1.476146 -1.166726 -1.166726 
C -1.476146 -0.857307 -1.65 -0.437585 -1.65 0 
C -1.65 0.437585 -1.476146 0.857307 -1.166726 1.166726 
C -0.857307 1.476146 -0.437585 1.65 0 1.65 
z
" style="stroke: #9e2a2b"/>
    </defs>
    <g clip-path="url(#p919c519538)">
     <use xlink:href="#m895f2c048e" x="205.898947" y="58.643813" style="fill: #9e2a2b; stroke: #9e2a2b"/>
    </g>
   </g>
   <g id="line2d_39">
    <defs>
     <path id="m3e7f5dfd2a" d="M 0 1.65 
C 0.437585 1.65 0.857307 1.476146 1.166726 1.166726 
C 1.476146 0.857307 1.65 0.437585 1.65 0 
C 1.65 -0.437585 1.476146 -0.857307 1.166726 -1.166726 
C 0.857307 -1.476146 0.437585 -1.65 0 -1.65 
C -0.437585 -1.65 -0.857307 -1.476146 -1.166726 -1.166726 
C -1.476146 -0.857307 -1.65 -0.437585 -1.65 0 
C -1.65 0.437585 -1.476146 0.857307 -1.166726 1.166726 
C -0.857307 1.476146 -0.437585 1.65 0 1.65 
z
" style="stroke: #7a8898"/>
    </defs>
    <g clip-path="url(#p919c519538)">
     <use xlink:href="#m3e7f5dfd2a" x="254.936517" y="66.164642" style="fill: #7a8898; stroke: #7a8898"/>
    </g>
   </g>
   <g id="line2d_40">
    <defs>
     <path id="m6dcc3ed852" d="M 0 1.65 
C 0.437585 1.65 0.857307 1.476146 1.166726 1.166726 
C 1.476146 0.857307 1.65 0.437585 1.65 0 
C 1.65 -0.437585 1.476146 -0.857307 1.166726 -1.166726 
C 0.857307 -1.476146 0.437585 -1.65 0 -1.65 
C -0.437585 -1.65 -0.857307 -1.476146 -1.166726 -1.166726 
C -1.476146 -0.857307 -1.65 -0.437585 -1.65 0 
C -1.65 0.437585 -1.476146 0.857307 -1.166726 1.166726 
C -0.857307 1.476146 -0.437585 1.65 0 1.65 
z
" style="stroke: #b86200"/>
    </defs>
    <g clip-path="url(#p919c519538)">
     <use xlink:href="#m6dcc3ed852" x="229.898607" y="73.685472" style="fill: #b86200; stroke: #b86200"/>
    </g>
   </g>
   <g id="line2d_41">
    <g clip-path="url(#p919c519538)">
     <use xlink:href="#m0bcc377849" x="232.043532" y="98.128166" style="fill: #1a5c9a; stroke: #1a5c9a"/>
    </g>
   </g>
   <g id="line2d_42">
    <g clip-path="url(#p919c519538)">
     <use xlink:href="#m895f2c048e" x="227.451972" y="105.648995" style="fill: #9e2a2b; stroke: #9e2a2b"/>
    </g>
   </g>
   <g id="line2d_43">
    <g clip-path="url(#p919c519538)">
     <use xlink:href="#m3e7f5dfd2a" x="246.074927" y="113.169824" style="fill: #7a8898; stroke: #7a8898"/>
    </g>
   </g>
   <g id="line2d_44">
    <g clip-path="url(#p919c519538)">
     <use xlink:href="#m6dcc3ed852" x="234.704328" y="120.690653" style="fill: #b86200; stroke: #b86200"/>
    </g>
   </g>
   <g id="line2d_45">
    <g clip-path="url(#p919c519538)">
     <use xlink:href="#m0bcc377849" x="240.215796" y="145.133347" style="fill: #1a5c9a; stroke: #1a5c9a"/>
    </g>
   </g>
   <g id="line2d_46">
    <g clip-path="url(#p919c519538)">
     <use xlink:href="#m895f2c048e" x="233.838839" y="152.654176" style="fill: #9e2a2b; stroke: #9e2a2b"/>
    </g>
   </g>
   <g id="line2d_47">
    <g clip-path="url(#p919c519538)">
     <use xlink:href="#m3e7f5dfd2a" x="253.488703" y="160.175005" style="fill: #7a8898; stroke: #7a8898"/>
    </g>
   </g>
   <g id="line2d_48">
    <g clip-path="url(#p919c519538)">
     <use xlink:href="#m6dcc3ed852" x="242.74097" y="167.695834" style="fill: #b86200; stroke: #b86200"/>
    </g>
   </g>
   <g id="line2d_49">
    <g clip-path="url(#p919c519538)">
     <use xlink:href="#m0bcc377849" x="161.21387" y="192.138528" style="fill: #1a5c9a; stroke: #1a5c9a"/>
    </g>
   </g>
   <g id="line2d_50">
    <g clip-path="url(#p919c519538)">
     <use xlink:href="#m895f2c048e" x="146.278646" y="199.659358" style="fill: #9e2a2b; stroke: #9e2a2b"/>
    </g>
   </g>
   <g id="line2d_51">
    <g clip-path="url(#p919c519538)">
     <use xlink:href="#m3e7f5dfd2a" x="207.424199" y="207.180187" style="fill: #7a8898; stroke: #7a8898"/>
    </g>
   </g>
   <g id="line2d_52">
    <g clip-path="url(#p919c519538)">
     <use xlink:href="#m6dcc3ed852" x="159.836171" y="214.701016" style="fill: #b86200; stroke: #b86200"/>
    </g>
   </g>
   <g id="legend_1">
    <g id="line2d_53">
     <path d="M 95.627567 220.818727 
L 101.127567 220.818727 
L 106.627567 220.818727 
" style="fill: none"/>
     <defs>
      <path id="m38409e046b" d="M 0 2 
C 0.530406 2 1.03916 1.789267 1.414214 1.414214 
C 1.789267 1.03916 2 0.530406 2 0 
C 2 -0.530406 1.789267 -1.03916 1.414214 -1.414214 
C 1.03916 -1.789267 0.530406 -2 0 -2 
C -0.530406 -2 -1.03916 -1.789267 -1.414214 -1.414214 
C -1.789267 -1.03916 -2 -0.530406 -2 0 
C -2 0.530406 -1.789267 1.03916 -1.414214 1.414214 
C -1.03916 1.789267 -0.530406 2 0 2 
z
" style="stroke: #1a5c9a"/>
     </defs>
     <g>
      <use xlink:href="#m38409e046b" x="101.127567" y="220.818727" style="fill: #1a5c9a; stroke: #1a5c9a"/>
     </g>
    </g>
    <g id="text_11">
     <text style="font: 5.5px 'Arial', 'Helvetica', 'DejaVu Sans', sans-serif; text-anchor: start" x="108.827567" y="222.743727" transform="rotate(-0 108.827567 222.743727)">Original score</text>
    </g>
    <g id="line2d_54">
     <path d="M 95.627567 228.663102 
L 101.127567 228.663102 
L 106.627567 228.663102 
" style="fill: none"/>
     <defs>
      <path id="m0649d78aa8" d="M 0 2 
C 0.530406 2 1.03916 1.789267 1.414214 1.414214 
C 1.789267 1.03916 2 0.530406 2 0 
C 2 -0.530406 1.789267 -1.03916 1.414214 -1.414214 
C 1.03916 -1.789267 0.530406 -2 0 -2 
C -0.530406 -2 -1.03916 -1.789267 -1.414214 -1.414214 
C -1.789267 -1.03916 -2 -0.530406 -2 0 
C -2 0.530406 -1.789267 1.03916 -1.414214 1.414214 
C -1.03916 1.789267 -0.530406 2 0 2 
z
" style="stroke: #9e2a2b"/>
     </defs>
     <g>
      <use xlink:href="#m0649d78aa8" x="101.127567" y="228.663102" style="fill: #9e2a2b; stroke: #9e2a2b"/>
     </g>
    </g>
    <g id="text_12">
     <text style="font: 5.5px 'Arial', 'Helvetica', 'DejaVu Sans', sans-serif; text-anchor: start" x="108.827567" y="230.588102" transform="rotate(-0 108.827567 230.588102)">MMP only</text>
    </g>
    <g id="line2d_55">
     <path d="M 147.704833 220.818727 
L 153.204833 220.818727 
L 158.704833 220.818727 
" style="fill: none"/>
     <defs>
      <path id="m44dfbbb90b" d="M 0 2 
C 0.530406 2 1.03916 1.789267 1.414214 1.414214 
C 1.789267 1.03916 2 0.530406 2 0 
C 2 -0.530406 1.789267 -1.03916 1.414214 -1.414214 
C 1.03916 -1.789267 0.530406 -2 0 -2 
C -0.530406 -2 -1.03916 -1.789267 -1.414214 -1.414214 
C -1.789267 -1.03916 -2 -0.530406 -2 0 
C -2 0.530406 -1.789267 1.03916 -1.414214 1.414214 
C -1.03916 1.789267 -0.530406 2 0 2 
z
" style="stroke: #7a8898"/>
     </defs>
     <g>
      <use xlink:href="#m44dfbbb90b" x="153.204833" y="220.818727" style="fill: #7a8898; stroke: #7a8898"/>
     </g>
    </g>
    <g id="text_13">
     <text style="font: 5.5px 'Arial', 'Helvetica', 'DejaVu Sans', sans-serif; text-anchor: start" x="160.904833" y="222.743727" transform="rotate(-0 160.904833 222.743727)">Without MMP</text>
    </g>
    <g id="line2d_56">
     <path d="M 147.704833 228.598649 
L 153.204833 228.598649 
L 158.704833 228.598649 
" style="fill: none"/>
     <defs>
      <path id="ma7390109d1" d="M 0 2 
C 0.530406 2 1.03916 1.789267 1.414214 1.414214 
C 1.789267 1.03916 2 0.530406 2 0 
C 2 -0.530406 1.789267 -1.03916 1.414214 -1.414214 
C 1.03916 -1.789267 0.530406 -2 0 -2 
C -0.530406 -2 -1.03916 -1.789267 -1.414214 -1.414214 
C -1.789267 -1.03916 -2 -0.530406 -2 0 
C -2 0.530406 -1.789267 1.03916 -1.414214 1.414214 
C -1.03916 1.789267 -0.530406 2 0 2 
z
" style="stroke: #b86200"/>
     </defs>
     <g>
      <use xlink:href="#ma7390109d1" x="153.204833" y="228.598649" style="fill: #b86200; stroke: #b86200"/>
     </g>
    </g>
    <g id="text_14">
     <text style="font: 5.5px 'Arial', 'Helvetica', 'DejaVu Sans', sans-serif; text-anchor: start" x="160.904833" y="230.523649" transform="rotate(-0 160.904833 230.523649)">Without CLDN2</text>
    </g>
   </g>
  </g>
  <g id="axes_2">
   <g id="patch_9">
    <path d="M 352.694959 232.704 
L 492.437567 232.704 
L 492.437567 33.12 
L 352.694959 33.12 
z
" style="fill: #ffffff"/>
   </g>
   <g id="patch_10">
    <path d="M 352.694959 118.143628 
L 492.437567 118.143628 
L 492.437567 42.192 
L 352.694959 42.192 
z
" clip-path="url(#p44d42d029a)" style="fill: #ffffff; stroke: #ffffff; stroke-linejoin: miter"/>
   </g>
   <g id="patch_11">
    <path d="M 352.694959 223.632 
L 492.437567 223.632 
L 492.437567 147.680372 
L 352.694959 147.680372 
z
" clip-path="url(#p44d42d029a)" style="fill: #f7f9fb; stroke: #f7f9fb; stroke-linejoin: miter"/>
   </g>
   <g id="matplotlib.axis_3">
    <g id="xtick_4">
     <g id="line2d_57">
      <g>
       <use xlink:href="#mc68f82bfc8" x="372.431716" y="232.704" style="stroke: #000000; stroke-width: 0.6"/>
      </g>
     </g>
     <g id="text_15">
      <text style="font: 6.8px 'Arial', 'Helvetica', 'DejaVu Sans', sans-serif; text-anchor: middle" x="372.431716" y="244.071312" transform="rotate(-0 372.431716 244.071312)">0.2</text>
     </g>
    </g>
    <g id="xtick_5">
     <g id="line2d_58">
      <g>
       <use xlink:href="#mc68f82bfc8" x="435.294887" y="232.704" style="stroke: #000000; stroke-width: 0.6"/>
      </g>
     </g>
     <g id="text_16">
      <text style="font: 6.8px 'Arial', 'Helvetica', 'DejaVu Sans', sans-serif; text-anchor: middle" x="435.294887" y="244.071312" transform="rotate(-0 435.294887 244.071312)">0.5</text>
     </g>
    </g>
    <g id="xtick_6">
     <g id="line2d_59">
      <g>
       <use xlink:href="#mc68f82bfc8" x="482.84904" y="232.704" style="stroke: #000000; stroke-width: 0.6"/>
      </g>
     </g>
     <g id="text_17">
      <text style="font: 6.8px 'Arial', 'Helvetica', 'DejaVu Sans', sans-serif; text-anchor: middle" x="482.84904" y="244.071312" transform="rotate(-0 482.84904 244.071312)">1.0</text>
     </g>
    </g>
    <g id="text_18">
     <text style="font: 6.7px 'Arial', 'Helvetica', 'DejaVu Sans', sans-serif; text-anchor: middle" x="422.566263" y="254.304391" transform="rotate(-0 422.566263 254.304391)">Pooled OR per 1-SD higher score</text>
    </g>
   </g>
   <g id="matplotlib.axis_4"/>
   <g id="line2d_60">
    <path d="M 482.84904 232.704 
L 482.84904 33.12 
" clip-path="url(#p44d42d029a)" style="fill: none; stroke-dasharray: 2.96,1.28; stroke-dashoffset: 0; stroke: #b8c4cf; stroke-width: 0.8"/>
   </g>
   <g id="patch_12">
    <path d="M 352.694959 232.704 
L 352.694959 33.12 
" style="fill: none; stroke: #000000; stroke-width: 0.6; stroke-linejoin: miter; stroke-linecap: square"/>
   </g>
   <g id="patch_13">
    <path d="M 352.694959 232.704 
L 492.437567 232.704 
" style="fill: none; stroke: #000000; stroke-width: 0.6; stroke-linejoin: miter; stroke-linecap: square"/>
   </g>
   <g id="LineCollection_17">
    <path d="M 427.994663 80.167814 
L 457.417938 80.167814 
" clip-path="url(#p44d42d029a)" style="fill: none; stroke: #1a5c9a; stroke-width: 1.1"/>
   </g>
   <g id="line2d_61">
    <defs>
     <path id="m1c4b79ffe8" d="M 0 2 
L 0 -2 
" style="stroke: #1a5c9a"/>
    </defs>
    <g clip-path="url(#p44d42d029a)">
     <use xlink:href="#m1c4b79ffe8" x="427.994663" y="80.167814" style="fill: #1a5c9a; stroke: #1a5c9a"/>
    </g>
   </g>
   <g id="line2d_62">
    <g clip-path="url(#p44d42d029a)">
     <use xlink:href="#m1c4b79ffe8" x="457.417938" y="80.167814" style="fill: #1a5c9a; stroke: #1a5c9a"/>
    </g>
   </g>
   <g id="text_19">
    <text style="fill: #252b35; font: 700 6px 'Arial', 'Helvetica', 'DejaVu Sans', sans-serif" transform="translate(357.122698 54.763469)">Adult mucosal healing</text>
    <text style="fill: #252b35; font: 700 6px 'Arial', 'Helvetica', 'DejaVu Sans', sans-serif" transform="translate(357.122698 61.179907)">GSE73661 + GSE206285</text>
   </g>
   <g id="text_20">
    <text style="fill: #6b7685; font: 5.5px 'Arial', 'Helvetica', 'DejaVu Sans', sans-serif; text-anchor: start" x="357.122698" y="99.155721" transform="rotate(-0 357.122698 99.155721)">OR 0.56 (0.45-0.69); I² 0%</text>
   </g>
   <g id="LineCollection_18">
    <path d="M 426.980382 185.656186 
L 456.038323 185.656186 
" clip-path="url(#p44d42d029a)" style="fill: none; stroke: #1a5c9a; stroke-width: 1.1"/>
   </g>
   <g id="line2d_63">
    <g clip-path="url(#p44d42d029a)">
     <use xlink:href="#m1c4b79ffe8" x="426.980382" y="185.656186" style="fill: #1a5c9a; stroke: #1a5c9a"/>
    </g>
   </g>
   <g id="line2d_64">
    <g clip-path="url(#p44d42d029a)">
     <use xlink:href="#m1c4b79ffe8" x="456.038323" y="185.656186" style="fill: #1a5c9a; stroke: #1a5c9a"/>
    </g>
   </g>
   <g id="text_21">
    <text style="fill: #252b35; font: 700 6px 'Arial', 'Helvetica', 'DejaVu Sans', sans-serif" transform="translate(357.122698 160.164092)">Healing-like sensitivity</text>
    <text style="fill: #252b35; font: 700 6px 'Arial', 'Helvetica', 'DejaVu Sans', sans-serif" transform="translate(357.122698 166.668279)">including GSE12251</text>
   </g>
   <g id="text_22">
    <text style="fill: #6b7685; font: 5.5px 'Arial', 'Helvetica', 'DejaVu Sans', sans-serif; text-anchor: start" x="357.122698" y="204.644093" transform="rotate(-0 357.122698 204.644093)">OR 0.55 (0.44-0.68); I² 0%</text>
   </g>
   <g id="text_23">
    <text style="fill: #6b7685; font: 5.4px 'Arial', 'Helvetica', 'DejaVu Sans', sans-serif; text-anchor: start" x="352.694959" y="278.60832" transform="rotate(-0 352.694959 278.60832)">Exploratory endpoint-specific synthesis; not a pan-IBD meta-analysis.</text>
   </g>
   <g id="text_24">
    <text style="font: 700 7.3px 'Arial', 'Helvetica', 'DejaVu Sans', sans-serif; text-anchor: start" x="352.694959" y="26.12" transform="rotate(-0 352.694959 26.12)">b  Adult healing synthesis</text>
   </g>
   <g id="line2d_65">
    <defs>
     <path id="mc3945fc55d" d="M -0 2.828427 
L 2.828427 0 
L 0 -2.828427 
L -2.828427 -0 
z
" style="stroke: #1a5c9a; stroke-linejoin: miter"/>
    </defs>
    <g clip-path="url(#p44d42d029a)">
     <use xlink:href="#mc3945fc55d" x="442.706336" y="80.167814" style="fill: #1a5c9a; stroke: #1a5c9a; stroke-linejoin: miter"/>
    </g>
   </g>
   <g id="line2d_66">
    <g clip-path="url(#p44d42d029a)">
     <use xlink:href="#mc3945fc55d" x="441.509288" y="185.656186" style="fill: #1a5c9a; stroke: #1a5c9a; stroke-linejoin: miter"/>
    </g>
   </g>
  </g>
  <g id="text_25">
   <text style="font: 700 7.8px 'Arial', 'Helvetica', 'DejaVu Sans', sans-serif; text-anchor: start" x="36.245567" y="12.878156" transform="rotate(-0 36.245567 12.878156)">Supplementary Figure 4 | Score-component sensitivity and adult healing synthesis</text>
  </g>
 </g>
 <defs>
  <clipPath id="p919c519538">
   <rect x="90.677567" y="33.12" width="209.613913" height="199.584"/>
  </clipPath>
  <clipPath id="p44d42d029a">
   <rect x="352.694959" y="33.12" width="139.742609" height="199.584"/>
  </clipPath>
 </defs>
</svg>
